<?xml version="1.0" encoding="utf-8"?>
<svg version="1.1" xmlns="http://www.w3.org/2000/svg" x="0px" y="0px"
	 viewBox="0 0 1200 600" xml:space="preserve">
<style type="text/css">
	.st0{fill:#216C89;}
	.st1{fill:#4993AA;}
	.st2{fill:#0F4565;}
	.st3{fill:#6BE8E8;}
	.st4{fill:#9DEEF4;}
	.st5{fill:#4ACFDD;}
	.st6{fill:#E38017;}
	.st7{fill:#16AFB5;}
	.st8{fill:#FFFFFF;}
</style>
<g>
	<!-- BOTTOM DATABASE (dark) -->
	<path class="st2" d="M60,320
		C60,320 60,460 60,460
		C60,486 130,500 172,500
		C214,500 284,486 284,460
		L284,320
		C284,346 214,360 172,360
		C130,360 60,346 60,320Z"/>
	<path class="st0" d="M172,360
		C214,360 284,346 284,320
		L284,460
		C284,486 214,500 172,500
		L172,360Z" opacity="0.4"/>
	<ellipse class="st1" cx="172" cy="320" rx="112" ry="40"/>
	<ellipse class="st0" cx="172" cy="320" rx="75" ry="26" opacity="0.3"/>

	<!-- TOP DATABASE (teal) -->
	<path class="st5" d="M60,160
		C60,160 60,270 60,270
		C60,296 130,310 172,310
		C214,310 284,296 284,270
		L284,160
		C284,186 214,200 172,200
		C130,200 60,186 60,160Z"/>
	<path class="st3" d="M172,200
		C214,200 284,186 284,160
		L284,270
		C284,296 214,310 172,310
		L172,200Z" opacity="0.4"/>
	<ellipse class="st4" cx="172" cy="160" rx="112" ry="40"/>
	<ellipse class="st5" cx="172" cy="160" rx="75" ry="26" opacity="0.35"/>

	<!-- DIAGONAL BARS -->
	<polygon class="st6" points="377.48,412.74 308.66,482.2 308.66,346.56 377.48,277.09"/>
	<polygon class="st7" points="457.07,412.74 388.25,482.2 388.25,346.56 457.07,277.09"/>

	<!-- "Xarray" TEXT -->
	<g>
		<path class="st8" d="M561.8,284.14c15.1,25.84,22.58,37.88,26.23,44.84h0.24c4.71-8.05,14.29-23.28,27.43-44.84h23.98
			l-38.73,58.3l38.9,63.89h-25.57c-13.11-23.02-22.76-39.02-27.04-46.76h-0.24c-3.43,6.57-13.72,25.07-26.9,46.76h-24.33
			l38.21-60.46l-37.18-61.73H561.8z"/>
		<path class="st8" d="M746.7,378.34c0,8.4,0.74,21.12,1.81,27.99h-20.09c-0.83-4.12-1.68-10.89-1.79-18.09
			c-4.76,11.83-16.93,20.25-36.42,20.25c-29.92,0-39.36-19.88-39.36-37.12c0-19.09,12.52-39.06,56.01-39.06c6.66,0,12.11,0,17.87,0
			v-11.28c0-11.28-3.25-22.43-22.74-22.43c-17.09,0-22.72,7.99-24.59,20.6h-21.75c1.72-20.23,13.48-37.46,46.96-37.46
			c26.18,0,44.1,10.21,44.1,38.51V378.34z M725.41,347.96c-4.71,0-11.28,0-18.48,0c-28.1,0-33.39,11.41-33.39,21.97
			c0,11.22,6.79,20.56,21.56,20.56c23.06,0,30.31-15.52,30.31-40.02V347.96z"/>
		<path class="st8" d="M780.8,325.6c0-19.59-0.13-34.96-0.48-41.46h21.86c0.46,5.67,0.57,13.46,0.57,24.13
			c5.41-14.21,18.35-26.05,39.04-26.32v23.06c-27.04,0.72-38.69,15.41-38.69,42.09v59.22h-22.3V325.6z"/>
		<path class="st8" d="M860.73,325.6c0-19.59-0.13-34.96-0.48-41.46h21.86c0.46,5.67,0.57,13.46,0.57,24.13
			c5.41-14.21,18.35-26.05,39.04-26.32v23.06c-27.04,0.72-38.69,15.41-38.69,42.09v59.22h-22.3V325.6z"/>
		<path class="st8" d="M1026.32,378.34c0,8.4,0.74,21.12,1.81,27.99h-20.09c-0.83-4.12-1.68-10.89-1.79-18.09
			c-4.76,11.83-16.93,20.25-36.42,20.25c-29.92,0-39.36-19.88-39.36-37.12c0-19.09,12.52-39.06,56.01-39.06c6.66,0,12.11,0,17.87,0
			v-11.28c0-11.28-3.25-22.43-22.74-22.43c-17.09,0-22.72,7.99-24.59,20.6h-21.75c1.72-20.23,13.48-37.46,46.96-37.46
			c26.18,0,44.1,10.21,44.1,38.51V378.34z M1005.03,347.96c-4.71,0-11.28,0-18.48,0c-28.1,0-33.39,11.41-33.39,21.97
			c0,11.22,6.79,20.56,21.56,20.56c23.06,0,30.31-15.52,30.31-40.02V347.96z"/>
		<path class="st8" d="M1066.52,284.14c18.02,57.78,27.62,87.24,30.48,101.79h0.24c3.62-13.75,14.51-52.1,29.94-101.79H1150
			l-42.5,127.6c-12.55,37.55-23.61,44.67-45.01,44.67c-2.53,0-7.83-0.35-10.87-0.94V436.6c2.84,0.48,7.57,0.72,10.6,0.72
			c13.81,0,18.53-10.76,23.81-26.84l-43.44-126.34H1066.52z"/>
	</g>
	<!-- "SQL" text -->
	<text class="st6" x="537" y="480" font-family="'Helvetica Neue', Helvetica, Arial, sans-serif" font-size="72" font-weight="700" letter-spacing="4">SQL</text>
</g>
</svg>
